name rise49.5252peak65.1548fall88.8305.mot
datacolumns 19
datarows 36
range 17.02326200000000 17.08159700000000
endheader
time	ground_force1_vx	ground_force1_vy	ground_force1_vz	ground_force1_px	ground_force1_py	ground_force1_pz	ground_force2_vx	ground_force2_vy	ground_force2_vz	ground_force2_px	ground_force2_py	ground_force2_pz	ground_torque1_x	ground_torque1_y	ground_torque1_z	ground_torque2_x	ground_torque2_y	ground_torque2_z	
17.02326200000000	-4.19013300000000	694.30918399999996	40.19816500000000	0.27637900000000	0.00000000000000	0.11563800000000	0.00000000000000	0.00000000000000	0.00000000000000	0.00000000000000	0.00000000000000	0.00000000000000	0.00000000000000	22.66806200000000	0.00000000000000	0.00000000000000	0.00000000000000	0.00000000000000	
17.02493200000000	-4.63620700000000	695.08204400000000	40.32687300000000	0.27532200000000	0.00000000000000	0.11566500000000	0.00000000000000	0.00000000000000	0.00000000000000	0.00000000000000	0.00000000000000	0.00000000000000	0.00000000000000	22.79838900000000	0.00000000000000	0.00000000000000	0.00000000000000	0.00000000000000	
17.02659500000000	-5.09036100000000	695.91141200000004	40.46029000000000	0.27428200000000	0.00000000000000	0.11569000000000	0.00000000000000	0.00000000000000	0.00000000000000	0.00000000000000	0.00000000000000	0.00000000000000	0.00000000000000	22.93431300000000	0.00000000000000	0.00000000000000	0.00000000000000	0.00000000000000	
17.02826900000000	-5.55283500000000	696.79664000000002	40.59803500000000	0.27325900000000	0.00000000000000	0.11571400000000	0.00000000000000	0.00000000000000	0.00000000000000	0.00000000000000	0.00000000000000	0.00000000000000	0.00000000000000	23.07560300000000	0.00000000000000	0.00000000000000	0.00000000000000	0.00000000000000	
17.02993000000000	-6.02383600000000	697.73712200000000	40.73974800000000	0.27225300000000	0.00000000000000	0.11573600000000	0.00000000000000	0.00000000000000	0.00000000000000	0.00000000000000	0.00000000000000	0.00000000000000	0.00000000000000	23.22202900000000	0.00000000000000	0.00000000000000	0.00000000000000	0.00000000000000	
17.03159900000000	-6.50352900000000	698.73229100000003	40.88509300000000	0.27126400000000	0.00000000000000	0.11575600000000	0.00000000000000	0.00000000000000	0.00000000000000	0.00000000000000	0.00000000000000	0.00000000000000	0.00000000000000	23.37336400000000	0.00000000000000	0.00000000000000	0.00000000000000	0.00000000000000	
17.03326200000000	-6.99204500000000	699.78161999999998	41.03375700000000	0.27029000000000	0.00000000000000	0.11577500000000	0.00000000000000	0.00000000000000	0.00000000000000	0.00000000000000	0.00000000000000	0.00000000000000	0.00000000000000	23.52938700000000	0.00000000000000	0.00000000000000	0.00000000000000	0.00000000000000	
17.03493000000000	-7.48947500000000	700.88461900000004	41.18545000000000	0.26933100000000	0.00000000000000	0.11579300000000	0.00000000000000	0.00000000000000	0.00000000000000	0.00000000000000	0.00000000000000	0.00000000000000	0.00000000000000	23.68988100000000	0.00000000000000	0.00000000000000	0.00000000000000	0.00000000000000	
17.03659400000000	-7.99586900000000	702.04083200000002	41.33990800000000	0.26838800000000	0.00000000000000	0.11580800000000	0.00000000000000	0.00000000000000	0.00000000000000	0.00000000000000	0.00000000000000	0.00000000000000	0.00000000000000	23.85463200000000	0.00000000000000	0.00000000000000	0.00000000000000	0.00000000000000	
17.03826500000000	-8.51124000000000	703.24983099999997	41.49689100000000	0.26745800000000	0.00000000000000	0.11582200000000	0.00000000000000	0.00000000000000	0.00000000000000	0.00000000000000	0.00000000000000	0.00000000000000	0.00000000000000	24.02342900000000	0.00000000000000	0.00000000000000	0.00000000000000	0.00000000000000	
17.03993300000000	-9.03555900000000	704.51121499999999	41.65618200000000	0.26654300000000	0.00000000000000	0.11583400000000	0.00000000000000	0.00000000000000	0.00000000000000	0.00000000000000	0.00000000000000	0.00000000000000	0.00000000000000	24.19606600000000	0.00000000000000	0.00000000000000	0.00000000000000	0.00000000000000	
17.04159800000000	-9.56875800000000	705.82460300000002	41.81759100000000	0.26564000000000	0.00000000000000	0.11584500000000	0.00000000000000	0.00000000000000	0.00000000000000	0.00000000000000	0.00000000000000	0.00000000000000	0.00000000000000	24.37234000000000	0.00000000000000	0.00000000000000	0.00000000000000	0.00000000000000	
17.04326500000000	-10.11072600000000	707.18962999999997	41.98095000000000	0.26475000000000	0.00000000000000	0.11585300000000	0.00000000000000	0.00000000000000	0.00000000000000	0.00000000000000	0.00000000000000	0.00000000000000	0.00000000000000	24.55205100000000	0.00000000000000	0.00000000000000	0.00000000000000	0.00000000000000	
17.04493100000000	-10.66131600000000	708.60593800000004	42.14611800000000	0.26387300000000	0.00000000000000	0.11586000000000	0.00000000000000	0.00000000000000	0.00000000000000	0.00000000000000	0.00000000000000	0.00000000000000	0.00000000000000	24.73500300000000	0.00000000000000	0.00000000000000	0.00000000000000	0.00000000000000	
17.04659500000000	-11.22033900000000	710.07317499999999	42.31297600000000	0.26300700000000	0.00000000000000	0.11586500000000	0.00000000000000	0.00000000000000	0.00000000000000	0.00000000000000	0.00000000000000	0.00000000000000	0.00000000000000	24.92100400000000	0.00000000000000	0.00000000000000	0.00000000000000	0.00000000000000	
17.04826000000000	-11.78756700000000	711.59097999999994	42.48143000000000	0.26215200000000	0.00000000000000	0.11586800000000	0.00000000000000	0.00000000000000	0.00000000000000	0.00000000000000	0.00000000000000	0.00000000000000	0.00000000000000	25.10986400000000	0.00000000000000	0.00000000000000	0.00000000000000	0.00000000000000	
17.04993300000000	-12.36273500000000	713.15898600000003	42.65140900000000	0.26130800000000	0.00000000000000	0.11586900000000	0.00000000000000	0.00000000000000	0.00000000000000	0.00000000000000	0.00000000000000	0.00000000000000	0.00000000000000	25.30139600000000	0.00000000000000	0.00000000000000	0.00000000000000	0.00000000000000	
17.05159800000000	-12.94554100000000	714.77680099999998	42.82286300000000	0.26047400000000	0.00000000000000	0.11586900000000	0.00000000000000	0.00000000000000	0.00000000000000	0.00000000000000	0.00000000000000	0.00000000000000	0.00000000000000	25.49541500000000	0.00000000000000	0.00000000000000	0.00000000000000	0.00000000000000	
17.05326600000000	-13.53564400000000	716.44401000000005	42.99576600000000	0.25965000000000	0.00000000000000	0.11586600000000	0.00000000000000	0.00000000000000	0.00000000000000	0.00000000000000	0.00000000000000	0.00000000000000	0.00000000000000	25.69174000000000	0.00000000000000	0.00000000000000	0.00000000000000	0.00000000000000	
17.05492900000000	-14.13267000000000	718.16015900000002	43.17011300000000	0.25883500000000	0.00000000000000	0.11586300000000	0.00000000000000	0.00000000000000	0.00000000000000	0.00000000000000	0.00000000000000	0.00000000000000	0.00000000000000	25.89019200000000	0.00000000000000	0.00000000000000	0.00000000000000	0.00000000000000	
17.05660000000000	-14.73621200000000	719.92475400000001	43.34592000000000	0.25802800000000	0.00000000000000	0.11585700000000	0.00000000000000	0.00000000000000	0.00000000000000	0.00000000000000	0.00000000000000	0.00000000000000	0.00000000000000	26.09059300000000	0.00000000000000	0.00000000000000	0.00000000000000	0.00000000000000	
17.05826800000000	-15.34582700000000	721.73724500000003	43.52322100000000	0.25723000000000	0.00000000000000	0.11585000000000	0.00000000000000	0.00000000000000	0.00000000000000	0.00000000000000	0.00000000000000	0.00000000000000	0.00000000000000	26.29276800000000	0.00000000000000	0.00000000000000	0.00000000000000	0.00000000000000	
17.05993000000000	-15.96104500000000	723.59702400000003	43.70207000000000	0.25644000000000	0.00000000000000	0.11584100000000	0.00000000000000	0.00000000000000	0.00000000000000	0.00000000000000	0.00000000000000	0.00000000000000	0.00000000000000	26.49654400000000	0.00000000000000	0.00000000000000	0.00000000000000	0.00000000000000	
17.06159700000000	-16.58136400000000	725.50341200000003	43.88254000000000	0.25565800000000	0.00000000000000	0.11583100000000	0.00000000000000	0.00000000000000	0.00000000000000	0.00000000000000	0.00000000000000	0.00000000000000	0.00000000000000	26.70175000000000	0.00000000000000	0.00000000000000	0.00000000000000	0.00000000000000	
17.06326700000000	-17.20625600000000	727.45565499999998	44.06472000000000	0.25488300000000	0.00000000000000	0.11582000000000	0.00000000000000	0.00000000000000	0.00000000000000	0.00000000000000	0.00000000000000	0.00000000000000	0.00000000000000	26.90821400000000	0.00000000000000	0.00000000000000	0.00000000000000	0.00000000000000	
17.06493100000000	-17.83516700000000	729.45291099999997	44.24871500000000	0.25411400000000	0.00000000000000	0.11580700000000	0.00000000000000	0.00000000000000	0.00000000000000	0.00000000000000	0.00000000000000	0.00000000000000	0.00000000000000	27.11576700000000	0.00000000000000	0.00000000000000	0.00000000000000	0.00000000000000	
17.06660100000000	-18.46751900000000	731.49424599999998	44.43464500000000	0.25335200000000	0.00000000000000	0.11579300000000	0.00000000000000	0.00000000000000	0.00000000000000	0.00000000000000	0.00000000000000	0.00000000000000	0.00000000000000	27.32424200000000	0.00000000000000	0.00000000000000	0.00000000000000	0.00000000000000	
17.06826600000000	-19.10271400000000	733.57862499999999	44.62264500000000	0.25259600000000	0.00000000000000	0.11577700000000	0.00000000000000	0.00000000000000	0.00000000000000	0.00000000000000	0.00000000000000	0.00000000000000	0.00000000000000	27.53347200000000	0.00000000000000	0.00000000000000	0.00000000000000	0.00000000000000	
17.06993200000000	-19.74013100000000	735.70490500000005	44.81286000000000	0.25184600000000	0.00000000000000	0.11576100000000	0.00000000000000	0.00000000000000	0.00000000000000	0.00000000000000	0.00000000000000	0.00000000000000	0.00000000000000	27.74329000000000	0.00000000000000	0.00000000000000	0.00000000000000	0.00000000000000	
17.07159800000000	-20.37913700000000	737.87182600000006	45.00544700000000	0.25110200000000	0.00000000000000	0.11574300000000	0.00000000000000	0.00000000000000	0.00000000000000	0.00000000000000	0.00000000000000	0.00000000000000	0.00000000000000	27.95353200000000	0.00000000000000	0.00000000000000	0.00000000000000	0.00000000000000	
17.07326200000000	-21.01907900000000	740.07801099999995	45.20057600000000	0.25036300000000	0.00000000000000	0.11572400000000	0.00000000000000	0.00000000000000	0.00000000000000	0.00000000000000	0.00000000000000	0.00000000000000	0.00000000000000	28.16403200000000	0.00000000000000	0.00000000000000	0.00000000000000	0.00000000000000	
17.07492900000000	-21.65929500000000	742.32195000000002	45.39842000000000	0.24962900000000	0.00000000000000	0.11570500000000	0.00000000000000	0.00000000000000	0.00000000000000	0.00000000000000	0.00000000000000	0.00000000000000	0.00000000000000	28.37462800000000	0.00000000000000	0.00000000000000	0.00000000000000	0.00000000000000	
17.07659600000000	-22.29911200000000	744.60200599999996	45.59916500000000	0.24890000000000	0.00000000000000	0.11568500000000	0.00000000000000	0.00000000000000	0.00000000000000	0.00000000000000	0.00000000000000	0.00000000000000	0.00000000000000	28.58515500000000	0.00000000000000	0.00000000000000	0.00000000000000	0.00000000000000	
17.07826800000000	-22.93784800000000	746.91640199999995	45.80299700000000	0.24817600000000	0.00000000000000	0.11566400000000	0.00000000000000	0.00000000000000	0.00000000000000	0.00000000000000	0.00000000000000	0.00000000000000	0.00000000000000	28.79545100000000	0.00000000000000	0.00000000000000	0.00000000000000	0.00000000000000	
17.07993100000000	-23.57481600000000	749.26322200000004	46.01011100000000	0.24745600000000	0.00000000000000	0.11564200000000	0.00000000000000	0.00000000000000	0.00000000000000	0.00000000000000	0.00000000000000	0.00000000000000	0.00000000000000	29.00535500000000	0.00000000000000	0.00000000000000	0.00000000000000	0.00000000000000	
17.08159700000000	-24.20932800000000	751.64040399999999	46.22070000000000	0.24674100000000	0.00000000000000	0.11562000000000	0.00000000000000	0.00000000000000	0.00000000000000	0.00000000000000	0.00000000000000	0.00000000000000	0.00000000000000	29.21470300000000	0.00000000000000	0.00000000000000	0.00000000000000	0.00000000000000	
